<svg xmlns="http://www.w3.org/2000/svg" viewBox="0 0 512 512" width="512" height="512">
  <!-- 背景圓形 -->
  <circle cx="256" cy="256" r="250" fill="#0066cc" stroke="#004499" stroke-width="12"/>
  
  <!-- 內部漸層背景 -->
  <defs>
    <radialGradient id="bgGradient" cx="50%" cy="40%">
      <stop offset="0%" style="stop-color:#4da6ff;stop-opacity:1" />
      <stop offset="100%" style="stop-color:#0066cc;stop-opacity:1" />
    </radialGradient>
    
    <!-- 陰影效果 -->
    <filter id="shadow">
      <feDropShadow dx="0" dy="4" stdDeviation="8" flood-opacity="0.3"/>
    </filter>
  </defs>
  
  <circle cx="256" cy="256" r="238" fill="url(#bgGradient)"/>
  
  <!-- 蒙版圖標 (簡化的相機光圈設計) -->
  <g transform="translate(256, 256)">
    <!-- 外圈 -->
    <circle cx="0" cy="0" r="120" fill="none" stroke="white" stroke-width="16" opacity="0.9"/>
    
    <!-- 內部花瓣狀光圈葉片 -->
    <g>
      <path d="M 0,-80 Q -40,-40 -80,0 Q -40,40 0,80 Q 40,40 80,0 Q 40,-40 0,-80" 
            fill="white" opacity="0.8" filter="url(#shadow)"/>
      
      <!-- 旋轉 60 度的葉片 -->
      <path d="M 0,-80 Q -40,-40 -80,0 Q -40,40 0,80 Q 40,40 80,0 Q 40,-40 0,-80" 
            fill="white" opacity="0.6" transform="rotate(60)" filter="url(#shadow)"/>
      
      <!-- 旋轉 120 度的葉片 -->
      <path d="M 0,-80 Q -40,-40 -80,0 Q -40,40 0,80 Q 40,40 80,0 Q 40,-40 0,-80" 
            fill="white" opacity="0.6" transform="rotate(120)" filter="url(#shadow)"/>
    </g>
    
    <!-- 中心圓點 -->
    <circle cx="0" cy="0" r="25" fill="white" opacity="0.95"/>
    <circle cx="0" cy="0" r="15" fill="#0066cc" opacity="0.8"/>
  </g>
  
  <!-- 版本標記 (可選) -->
  <text x="256" y="440" font-family="Arial, sans-serif" font-size="48" font-weight="bold" 
        text-anchor="middle" fill="white" opacity="0.8">2.0</text>
</svg>